<svg xmlns="http://www.w3.org/2000/svg" width="26" height="48" viewBox="0 0 26 48">
  <path fill-rule="evenodd" d="M24.8728636,0.0099872 L18.6735466,0 C11.7088264,0 7.2079184,4.6365594 7.2079184,11.8128648 L7.2079184,17.2593864 L0.9747824,17.2593864 C0.4361654,17.2593864 0,17.6978246 0,18.2386318 L0,26.130021 C0,26.670828 0.4366626,27.1087668 0.9747824,27.1087668 L7.2079184,27.1087668 L7.2079184,47.021254 C7.2079184,47.5620612 7.6440836,48 8.1827006,48 L16.3151702,48 C16.853787,48 17.2899524,47.5615618 17.2899524,47.021254 L17.2899524,27.1087668 L24.5779422,27.1087668 C25.1165592,27.1087668 25.5527244,26.670828 25.5527244,26.130021 L25.5557086,18.2386318 C25.5557086,17.9789644 25.4527596,17.730283 25.2702366,17.5465186 C25.0877136,17.362754 24.8390446,17.2593864 24.5804288,17.2593864 L17.2899524,17.2593864 L17.2899524,12.642302 C17.2899524,10.4231454 17.8166332,9.2965888 20.6957224,9.2965888 L24.8718688,9.2950906 C25.4099884,9.2950906 25.8461538,8.8566524 25.8461538,8.3163446 L25.8461538,0.9887332 C25.8461538,0.4489248 25.4104858,0.010986 24.8728636,0.0099872 Z"/>
</svg>
