<svg xmlns="http://www.w3.org/2000/svg" width="22" height="28" viewBox="0 0 22 28">
  <path fill="#FFF" d="M32.8660657,113.869276 C30.9675746,112.019039 28.3402701,111 25.4681597,111 C21.0808681,111 18.382488,112.825764 16.8914138,114.357303 C15.0537684,116.244747 14,118.750893 14,121.233289 C14,124.3501 15.2841635,126.742368 17.4346658,127.632357 C17.5790408,127.692412 17.7243053,127.722665 17.8667233,127.722665 C18.320397,127.722665 18.6798667,127.421306 18.8044046,126.937886 C18.8769924,126.660549 19.0452075,125.976373 19.118329,125.679349 C19.2748909,125.092796 19.148396,124.810673 18.8069843,124.402208 C18.1850065,123.655087 17.895367,122.771601 17.895367,121.621795 C17.895367,118.206515 20.4003575,114.576752 25.0431297,114.576752 C28.7269602,114.576752 31.0153438,116.702339 31.0153438,120.123941 C31.0153438,122.283123 30.5572223,124.28273 29.7251313,125.754666 C29.1469198,126.777408 28.1301569,127.99657 26.5692525,127.99657 C25.8942572,127.99657 25.2879356,127.715079 24.9053374,127.224344 C24.5439107,126.76043 24.4247991,126.161144 24.5701526,125.536571 C24.7343647,124.830902 24.958266,124.094799 25.174962,123.383169 C25.5701918,122.083451 25.9438055,120.85589 25.9438055,119.876496 C25.9438055,118.201277 24.9293555,117.075674 23.4196895,117.075674 C21.5010945,117.075674 19.9980112,119.053968 19.9980112,121.579441 C19.9980112,122.818019 20.3222545,123.744402 20.4690313,124.100127 C20.2273388,125.139756 18.7908833,131.320549 18.5184122,132.486068 C18.3608718,133.166451 17.4118042,138.540249 18.9826717,138.968762 C20.7476403,139.450196 22.3252684,134.216466 22.4858333,133.625037 C22.6159754,133.144055 23.0713392,131.325335 23.350393,130.207318 C24.2024101,131.040503 25.5742838,131.603756 26.9091519,131.603756 C29.4256177,131.603756 31.6887379,130.454131 33.2816664,128.366834 C34.8265588,126.342302 35.6774194,123.520528 35.6774194,120.421688 C35.6774194,117.999076 34.6526505,115.610782 32.8660657,113.869276 Z" transform="translate(-14 -111)"/>
</svg>
